<svg width="70" height="101" viewBox="0 0 70 101" fill="none" xmlns="http://www.w3.org/2000/svg">
<rect width="70" height="100.227" rx="9" fill="#F4F4F4"/>
<rect x="8.21487" y="22.4547" width="5.85713" height="8.86362" rx="2.92857" stroke="#5D5D57"/>
<rect x="8.21475" y="45.682" width="5.85713" height="8.86362" rx="2.92857" stroke="#5D5D57"/>
<rect x="8.21475" y="68.909" width="5.85713" height="8.86362" rx="2.92857" stroke="#5D5D57"/>
<line x1="18.785" y1="23.9998" x2="43.785" y2="23.9998" stroke="#5D5D57" stroke-linecap="round"/>
<line x1="46.5002" y1="23.9998" x2="58.6431" y2="23.9998" stroke="#5D5D57" stroke-linecap="round"/>
<line x1="18.7848" y1="26.227" x2="31.2134" y2="26.227" stroke="#5D5D57" stroke-linecap="round"/>
<line x1="35.3581" y1="26.227" x2="55.2153" y2="26.227" stroke="#5D5D57" stroke-linecap="round"/>
<line x1="18.7848" y1="28.4547" x2="22.0705" y2="28.4547" stroke="#5D5D57" stroke-linecap="round"/>
<line x1="26.4998" y1="28.4547" x2="34.3569" y2="28.4547" stroke="#5D5D57" stroke-linecap="round"/>
<line x1="41.6425" y1="28.4547" x2="58.6425" y2="28.4547" stroke="#5D5D57" stroke-linecap="round"/>
<line x1="18.7849" y1="47.2271" x2="43.7848" y2="47.2271" stroke="#5D5D57" stroke-linecap="round"/>
<line x1="46.5002" y1="47.227" x2="58.6431" y2="47.227" stroke="#5D5D57" stroke-linecap="round"/>
<line x1="18.7848" y1="49.4543" x2="31.2134" y2="49.4543" stroke="#5D5D57" stroke-linecap="round"/>
<line x1="35.3582" y1="49.4543" x2="55.2154" y2="49.4543" stroke="#5D5D57" stroke-linecap="round"/>
<line x1="18.7848" y1="51.6824" x2="22.0705" y2="51.6824" stroke="#5D5D57" stroke-linecap="round"/>
<line x1="26.4998" y1="51.6824" x2="34.357" y2="51.6824" stroke="#5D5D57" stroke-linecap="round"/>
<line x1="41.6425" y1="51.6824" x2="58.6425" y2="51.6824" stroke="#5D5D57" stroke-linecap="round"/>
<line x1="18.7849" y1="70.4545" x2="43.7848" y2="70.4545" stroke="#5D5D57" stroke-linecap="round"/>
<line x1="46.5002" y1="70.4544" x2="58.6431" y2="70.4544" stroke="#5D5D57" stroke-linecap="round"/>
<line x1="18.7848" y1="72.6817" x2="31.2134" y2="72.6817" stroke="#5D5D57" stroke-linecap="round"/>
<line x1="35.3581" y1="72.6817" x2="55.2153" y2="72.6817" stroke="#5D5D57" stroke-linecap="round"/>
<line x1="18.7848" y1="74.9097" x2="22.0705" y2="74.9097" stroke="#5D5D57" stroke-linecap="round"/>
<line x1="26.4998" y1="74.9097" x2="34.3569" y2="74.9097" stroke="#5D5D57" stroke-linecap="round"/>
<line x1="41.6425" y1="74.9097" x2="58.6425" y2="74.9097" stroke="#5D5D57" stroke-linecap="round"/>
<rect width="1.5687" height="4.8348" rx="0.784349" transform="matrix(0.683466 -0.729982 0.683466 0.729982 8 49.0293)" fill="#758E41"/>
<rect width="1.57408" height="7.81649" rx="0.787039" transform="matrix(-0.644549 -0.764563 0.720781 -0.693163 11.366 52.6216)" fill="#758E41"/>
</svg>
